<?xml version="1.0" encoding="UTF-8" standalone="no"?>
<svg
   width="256"
   height="256"
   viewBox="0 0 256 256"
   version="1.1"
   id="svg2"
   sodipodi:docname="mkbib.svg"
   inkscape:version="1.4.3 (0d15f75042, 2025-12-25)"
   inkscape:export-filename="mkbib.png"
   inkscape:export-xdpi="384"
   inkscape:export-ydpi="384"
   xmlns:inkscape="http://www.inkscape.org/namespaces/inkscape"
   xmlns:sodipodi="http://sodipodi.sourceforge.net/DTD/sodipodi-0.dtd"
   xmlns="http://www.w3.org/2000/svg"
   xmlns:svg="http://www.w3.org/2000/svg">
  <defs
     id="defs2" />
  <sodipodi:namedview
     id="namedview2"
     pagecolor="#ffffff"
     bordercolor="#000000"
     borderopacity="0.25"
     inkscape:showpageshadow="2"
     inkscape:pageopacity="0.0"
     inkscape:pagecheckerboard="0"
     inkscape:deskcolor="#d1d1d1"
     inkscape:zoom="3.59375"
     inkscape:cx="128"
     inkscape:cy="128"
     inkscape:window-width="1920"
     inkscape:window-height="1168"
     inkscape:window-x="0"
     inkscape:window-y="0"
     inkscape:window-maximized="1"
     inkscape:current-layer="svg2" />
  <path
     style="fill:#3572ed;fill-opacity:1;stroke:none;stroke-width:8.40421;stroke-linejoin:round"
     id="path4"
     sodipodi:type="arc"
     sodipodi:cx="128"
     sodipodi:cy="-128"
     sodipodi:rx="128"
     sodipodi:ry="128"
     sodipodi:start="0"
     sodipodi:end="3.1415927"
     sodipodi:arc-type="slice"
     d="M 256,-128 A 128,128 0 0 1 192,-17.148747 128,128 0 0 1 63.999997,-17.14875 128,128 0 0 1 0,-128 h 128 z"
     transform="scale(1,-1)" />
  <path
     style="fill:#6195fc;fill-opacity:1;stroke:none;stroke-width:8.40421;stroke-linejoin:round"
     id="path3"
     sodipodi:type="arc"
     sodipodi:cx="128"
     sodipodi:cy="128"
     sodipodi:rx="128"
     sodipodi:ry="128"
     sodipodi:start="0"
     sodipodi:end="3.1415927"
     sodipodi:arc-type="slice"
     d="m 256,128 a 128,128 0 0 1 -64,110.85125 128,128 0 0 1 -128.000003,0 A 128,128 0 0 1 0,128 h 128 z" />
  <g
     fill="currentColor"
     id="g2"
     style="fill:#ffffff;fill-opacity:1">
    <path
       d="M 48,48              L 112,48              L 112,80              L 80,80              L 80,104              L 104,128              L 80,152              L 80,176              L 112,176              L 112,208              L 48,208              L 48,176              L 48,80              Z"
       id="path1"
       style="fill:#ffffff;fill-opacity:1" />
    <path
       d="M 208,48              L 144,48              L 144,80              L 176,80              L 176,104              L 152,128              L 176,152              L 176,176              L 144,176              L 144,208              L 208,208              L 208,176              L 208,80              Z"
       id="path2"
       style="fill:#ffffff;fill-opacity:1" />
  </g>
</svg>
